# xmcd
#
# Track frame offsets:
#	182
#	17537
#	35532
#	47257
#	59965
#	77617
#	93442
#	104590
#	119820
#	130515
#
# Disc length: 1959 seconds
#
# Revision: 1
# Processed by: cddbd v1.5.1PL2 Copyright (c) Steve Scherf et al.
# Submitted via: audiograbber 1.83.01
#
DISCID=8107a50a
DTITLE=Dani Daraîche - Blue Roses
DYEAR=1993
DGENRE=Country
TTITLE0=Le train qui siffle
TTITLE1=J'avais 16 ans
TTITLE2=Je t'aime encore
TTITLE3=En amour
TTITLE4=Blue Roses
TTITLE5=Laisse-moi faire comme je veux
TTITLE6=Le crime de la drogue
TTITLE7=Marin
TTITLE8=Mon soleil, Ma joie
TTITLE9=Du Country
EXTD=YEAR: 1993
EXTT0=
EXTT1=
EXTT2=
EXTT3=
EXTT4=
EXTT5=
EXTT6=
EXTT7=
EXTT8=
EXTT9=
PLAYORDER=
